<svg width="104" height="95" viewBox="0 0 104 95" fill="none" xmlns="http://www.w3.org/2000/svg">
<path d="M104 41.933C104 27.2534 95.5356 18.8206 83.8058 11.6605C74.4573 5.95399 63.403 -1.29543e-05 50.233 -1.29543e-05C20.5383 -1.29543e-05 0 15.5541 0 41.933C0 54.715 4.17364 72.8924 13.3786 81.4644C20.5366 88.1301 22.7511 91.6342 32.628 93.7467C35.2547 94.3085 40.778 92.5527 46.259 92.7441C51.3125 92.9205 63.892 95 68.2202 95C97.9149 95 104 68.3119 104 41.933Z" fill="#F8CA1D"/>
<path d="M48.3929 12.4368L43.4175 13.1685L45.9881 15.6886L45.0759 19.916L52.3732 15.6886H60.5825L55.3584 13.1685L58.7582 10.1606L52.3732 10.8109L47.6466 7.88431L48.3929 12.4368Z" fill="#0E6629"/>
</svg>
