<svg width="144" height="148" viewBox="0 0 144 148" fill="none" xmlns="http://www.w3.org/2000/svg">
<path d="M124.791 56.8187C119.504 41.953 107.954 36.4405 93.58 33.3849C82.1238 30.9496 68.8631 28.8737 55.6194 33.5841C25.7585 44.2048 10.7076 67.302 20.2089 94.0156C24.8127 106.96 35.5569 123.875 47.9009 129.263C57.4998 133.454 60.9889 136.21 71.6819 134.817C74.5257 134.446 79.4474 130.693 85.0281 128.926C90.1734 127.297 103.572 124.904 107.925 123.356C137.786 112.735 134.292 83.5323 124.791 56.8187Z" fill="#EE3E29"/>
<path d="M57.9271 47.8662C58.3138 44.5932 57.1297 36.1887 49.2994 28.7537" stroke="#4C110E" stroke-width="9"/>
<path d="M35.608 32.7252C46.8047 34.0445 56.4621 43.9902 59.8912 48.7981C55.1553 51.1247 43.8047 56.1001 37.2807 52.7003C30.7567 49.3005 22.8781 36.264 19.7544 30.1707C20.3736 30.4725 24.4114 31.4059 35.608 32.7252Z" fill="#0E6629"/>
</svg>
