<svg width="1181" height="286" viewBox="0 0 1181 286" fill="none" xmlns="http://www.w3.org/2000/svg">
<path d="M206 147C206 179.732 189.234 198.535 166 214.5C147.483 227.224 125.587 240.5 99.5 240.5C40.6817 240.5 0 212.818 0 154C0 125.499 11.1954 99.6133 29.4283 80.5C48.8236 60.1682 69.1824 46 99.5 46C158.318 46 206 88.1817 206 147Z" fill="#EE3E29"/>
<path d="M75 68L45 72.5L60.5 88L55 114L99 88H148.5L117 72.5L137.5 54L99 58L70.5 40L75 68Z" fill="#0E6629"/>
<path d="M1180.28 124.926C1180.28 87.4633 1158.83 65.9424 1129.1 47.6695C1105.41 33.1063 1077.4 17.9115 1044.02 17.9115C968.771 17.9115 916.724 49.5943 916.724 116.914C916.724 149.534 931.047 179.162 954.374 201.038C979.188 224.308 1005.23 240.524 1044.02 240.524C1119.27 240.524 1180.28 192.246 1180.28 124.926Z" fill="#FAA725"/>
<path d="M1053.04 35.8228L1080.49 41.58L1066.31 61.4105L1071.34 94.6745L1031.09 61.4105H985.811L1014.62 41.58L995.873 17.9114L1031.09 23.0289L1057.16 0L1053.04 35.8228Z" fill="#0E6629"/>
<path d="M813.334 109.339C828.795 130.226 841.651 163.126 841.659 184.859C841.668 208.142 844.396 231.077 826.952 243.99C809.184 257.143 789.31 245.053 766.65 237.777C746.295 231.241 721.135 219.058 705.98 198.586C693.228 181.359 686.481 177.782 686.7 164.614C687.032 144.711 701.897 121.696 721.575 101.637C744.963 84.3238 767.912 71.5224 788.359 80.8856C797.399 85.0248 803.516 96.076 813.334 109.339Z" fill="#EE3E29"/>
<path d="M670.353 124.914L725.571 108.386L760.252 50.8405L750.543 95.6556L790.218 100.373L738.098 121.689L701.048 166.38L714.049 128.425L670.353 124.914Z" fill="#0E6629"/>
<path d="M786.798 144.681C788.035 148.678 787.918 151.471 785.92 152.09C783.922 152.709 783.716 150.058 780.296 146.695C779.059 142.698 780.347 141.128 782.346 140.509C784.344 139.89 785.56 140.685 786.798 144.681Z" fill="#D01F0A"/>
<path d="M664 120.082C664 89.947 646.746 72.6357 622.835 57.9372C603.778 46.2227 581.245 34.0001 554.398 34.0001C493.867 34.0001 452 65.9301 452 120.082C452 146.321 460.508 183.636 479.272 201.233C493.863 214.917 498.377 222.11 518.511 226.447C523.865 227.6 535.124 223.996 546.297 224.388C556.599 224.751 582.241 229.02 591.064 229.02C651.596 229.02 664 174.233 664 120.082Z" fill="#F8CA1D"/>
<path d="M550.647 59.5306L540.505 61.0326L545.745 66.2061L543.886 74.8841L558.761 66.2061H575.495L564.846 61.0326L571.776 54.8578L558.761 56.1929L549.126 50.1851L550.647 59.5306Z" fill="#0E6629"/>
</svg>
