<svg width="59" height="64" viewBox="0 0 59 64" fill="none" xmlns="http://www.w3.org/2000/svg">
<path d="M58.8687 36.7214C58.8687 46.0751 54.0774 51.4485 47.4378 56.0109C42.1462 59.6471 35.8889 63.4409 28.4341 63.4409C11.6256 63.4409 0 55.5303 0 38.7218C0 30.5772 3.1993 23.1797 8.40974 17.7177C13.9523 11.9075 19.7703 7.85864 28.4341 7.85864C45.2427 7.85864 58.8687 19.9129 58.8687 36.7214Z" fill="#FF8C33"/>
<path d="M27.7593 15.6263C26.6495 14.0596 25.3576 9.64953 29.0689 4.54279" stroke="#4C110E" stroke-width="9"/>
<path d="M39.8776 4.09401C32.2007 6.74317 27.821 13.4292 26.5908 16.4411C30.5722 16.762 39.9614 17.2308 43.7649 14.3725C47.5684 11.5142 49.8883 3.59987 50.5729 -7.38125e-06C50.2065 0.260851 47.5546 1.44486 39.8776 4.09401Z" fill="#0E6629"/>
</svg>
