<svg width="115" height="104" viewBox="0 0 115 104" fill="none" xmlns="http://www.w3.org/2000/svg">
<path d="M115 54.0165C115 37.8181 105.64 28.5127 92.6699 20.6117C82.3326 14.3148 70.1091 7.74471 55.5461 7.74471C22.7106 7.74471 0 21.444 0 50.5523C0 64.6569 6.24984 77.4675 16.4284 86.9264C27.2559 96.9883 38.6212 104 55.5461 104C88.3816 104 115 83.1249 115 54.0165Z" fill="#FAA725"/>
<path d="M59.4824 15.4894L71.4565 17.9787L65.2699 26.5532L67.4652 40.9362L49.9031 26.5532H30.1459L42.7187 17.9787L34.5364 7.74468L49.9031 9.95744L61.2785 0L59.4824 15.4894Z" fill="#0E6629"/>
</svg>
