<svg width="109" height="106" viewBox="0 0 109 106" fill="none" xmlns="http://www.w3.org/2000/svg">
<path d="M109 56.5686C109 73.8731 100.129 83.8139 87.835 92.2544C78.037 98.9813 66.4512 106 52.6481 106C21.5257 106 0 91.3653 0 60.2693C0 45.2016 5.92376 31.5163 15.5713 21.4115C25.8339 10.6625 36.6062 3.17207 52.6481 3.17207C83.7704 3.17207 109 25.4726 109 56.5686Z" fill="#EE3E29"/>
<path d="M39.6843 14.803L23.8105 17.182L32.012 25.3766L29.1018 39.1222L52.3834 25.3766H78.5751L61.9076 17.182L72.7547 7.4015L52.3834 9.51621L37.3033 0L39.6843 14.803Z" fill="#0E6629"/>
</svg>
